# File created by Blade
# Date/Time:  Wed Jan 21 18:34:34 2015
#---------------------------------------------------------
:version 1.10
:name HOM
:units
  mass 1.0
  length 1.000000
  angle deg
:documentation
     Acclaim Skeleton File
:root
   axis xyz
   order TX TY TZ RX RY RZ
   position 0.000000 0.000000 0.000000
   orientation 0 0 0
:bonedata
   begin
      id 1
      name RightUpLeg_dum
      direction -1.000000 0.000000 0.000000
      length 3.693983
      axis 0.0 0.0 0.0 xyz
   end
   begin
      id 2
      name LeftUpLeg_dum
      direction 1.000000 0.000000 0.000000
      length 3.693983
      axis 0.0 0.0 0.0 xyz
   end
   begin
      id 3
      name Spine_dum
      direction 0.000000 1.000000 0.000000
      length 2.392956
      axis 0.0 0.0 0.0 xyz
   end
   begin
      id 4
      name RightUpLeg
      direction 0.000000 -1.000000 0.000000
      length 15.795667
      axis 0.0 0.0 0.0 xyz
      dof rx ry rz
   end
   begin
      id 5
      name RightLeg
      direction 0.000000 -1.000000 0.000000
      length 14.766989
      axis 0.0 0.0 0.0 xyz
      dof rx ry rz
   end
   begin
      id 6
      name RightFoot
      direction 0.000000 -0.258819 0.965926
      length 4.962790
      axis 15.0 0.0 0.0 xyz
      dof rx ry rz
   end
   begin
      id 7
      name RightToeBase
      direction 0.000000 0.000000 1.000000
      length 2.952750
      axis 0.0 0.0 0.0 xyz
      dof rx ry rz
   end
   begin
      id 8
      name LeftUpLeg
      direction 0.000000 -1.000000 0.000000
      length 15.795667
      axis 0.0 0.0 0.0 xyz
      dof rx ry rz
   end
   begin
      id 9
      name LeftLeg
      direction 0.000000 -1.000000 0.000000
      length 14.766989
      axis 0.0 0.0 0.0 xyz
      dof rx ry rz
   end
   begin
      id 10
      name LeftFoot
      direction 0.000000 -0.258819 0.965926
      length 4.962790
      axis 15.0 0.0 0.0 xyz
      dof rx ry rz
   end
   begin
      id 11
      name LeftToeBase
      direction 0.000000 0.000000 1.000000
      length 2.952750
      axis 0.0 0.0 0.0 xyz
      dof rx ry rz
   end
   begin
      id 12
      name Spine
      direction 0.000000 1.000000 0.000000
      length 0.000000
      axis 0.0 0.0 0.0 xyz
      dof rx ry rz
   end
   begin
      id 13
      name Spine_dum1
      direction 0.000000 1.000000 0.000000
      length 13.207411
      axis 0.0 0.0 0.0 xyz
   end
   begin
      id 14
      name Spine_dum2
      direction 0.000000 1.000000 0.000000
      length 13.207411
      axis 0.0 0.0 0.0 xyz
   end
   begin
      id 15
      name Spine_dum3
      direction 0.000000 1.000000 0.000000
      length 19.250100
      axis 0.0 0.0 0.0 xyz
   end
   begin
      id 16
      name RightShoulder
      direction -1.000000 0.000000 0.000000
      length 8.140465
      axis 0.0 0.0 90.0 xyz
      dof rx ry rz
   end
   begin
      id 17
      name RightArm
      direction -1.000000 0.000000 0.000000
      length 10.649840
      axis 0.0 0.0 90.0 xyz
      dof rx ry rz
   end
   begin
      id 18
      name RightForeArm
      direction -1.000000 0.000000 0.000000
      length 8.304624
      axis 0.0 0.0 90.0 xyz
      dof ry rz rx
   end
   begin
      id 19
      name RightHand
      direction -1.000000 0.000000 0.000000
      length 0.000000
      axis 0.0 0.0 90.0 xyz
      dof rx ry rz
   end
   begin
      id 20
      name RightHand_dum1
      direction -1.000000 0.000000 0.000000
      length 3.937000
      axis 0.0 0.0 90.0 xyz
   end
   begin
      id 21
      name RightHand_dum2
      direction 0.000000 0.000000 0.000000
      length 0.000000
      axis 0.0 0.0 90.0 xyz
   end
   begin
      id 22
      name RightHandThumb1
      direction 0.000000 0.000000 1.000000
      length 3.937000
      axis 0.0 0.0 90.0 xyz
      dof rx rz ry
   end
   begin
      id 23
      name LeftShoulder
      direction 1.000000 0.000000 0.000000
      length 8.140465
      axis 0.0 0.0 -90.0 xyz
      dof rx ry rz
   end
   begin
      id 24
      name LeftArm
      direction 1.000000 0.000000 0.000000
      length 10.649840
      axis 0.0 0.0 -90.0 xyz
      dof rx ry rz
   end
   begin
      id 25
      name LeftForeArm
      direction 1.000000 0.000000 0.000000
      length 8.304624
      axis 0.0 0.0 -90.0 xyz
      dof ry rz rx
   end
   begin
      id 26
      name LeftHand
      direction 1.000000 0.000000 0.000000
      length 0.000000
      axis 0.0 0.0 -90.0 xyz
      dof rx ry rz
   end
   begin
      id 27
      name LeftHand_dum1
      direction 1.000000 0.000000 0.000000
      length 3.937000
      axis 0.0 0.0 -90.0 xyz
   end
   begin
      id 28
      name LeftHand_dum2
      direction 0.000000 0.000000 0.000000
      length 0.000000
      axis 0.0 0.0 -90.0 xyz
   end
   begin
      id 29
      name LeftHandThumb1
      direction 0.000000 0.000000 1.000000
      length 3.937000
      axis 0.0 0.0 -90.0 xyz
      dof rx rz ry
   end
   begin
      id 30
      name Head
      direction 0.000000 1.000000 0.000000
      length 4.527550
      axis 0.0 0.0 0.0 xyz
      dof rx ry rz
   end
:hierarchy
   begin
      root RightUpLeg_dum LeftUpLeg_dum Spine_dum
      RightUpLeg_dum RightUpLeg
      LeftUpLeg_dum LeftUpLeg
      Spine_dum Spine
      RightUpLeg RightLeg
      RightLeg RightFoot
      RightFoot RightToeBase
      LeftUpLeg LeftLeg
      LeftLeg LeftFoot
      LeftFoot LeftToeBase
      Spine Spine_dum1 Spine_dum2 Spine_dum3
      Spine_dum1 RightShoulder
      Spine_dum2 LeftShoulder
      Spine_dum3 Head
      RightShoulder RightArm
      RightArm RightForeArm
      RightForeArm RightHand
      RightHand RightHand_dum1 RightHand_dum2
      RightHand_dum2 RightHandThumb1
      LeftShoulder LeftArm
      LeftArm LeftForeArm
      LeftForeArm LeftHand
      LeftHand LeftHand_dum1 LeftHand_dum2
      LeftHand_dum2 LeftHandThumb1
   end

# File created by Blade
# Date/Time:  Wed Jan 21 18:34:41 2015
# Frame Rate: 120.000 fps
#------------------------------------------------------
:FULLY-SPECIFIED
:DEGREES
303
root 2.358532 32.097387 -6.778474 127.676161 -81.067226 -78.947292
RightUpLeg -64.970853 19.946070 -16.782914
RightLeg 3.579170 -0.000000 -0.000000
RightFoot 24.575073 34.065425 36.828851
RightToeBase 27.937847 -0.000000 -0.000000
LeftUpLeg -36.709916 28.244910 -23.703651
LeftLeg -0.867589 -0.000000 0.000000
LeftFoot -18.881373 15.727713 -10.770121
LeftToeBase 3.369537 -0.000000 -0.000000
Spine -60.391503 -26.637751 43.661469
RightShoulder -30.689207 3.174593 -50.300437
RightArm -16.379371 -8.566150 41.700374
RightForeArm 5.535588 -0.000000 -8.054479
RightHand 12.630449 -0.000000 -0.743546
RightHandThumb1 -24.326973 -0.000000 -32.862282
LeftShoulder 4.204067 -20.263816 41.247349
LeftArm 56.984429 0.610210 -40.129666
LeftForeArm 19.997086 -0.000000 1.871290
LeftHand -22.003777 -0.000000 -7.319932
LeftHandThumb1 -26.253704 0.000000 33.147579
Head -9.170855 -43.003806 20.655602
304
root 2.364506 32.093040 -6.779052 129.586102 -81.109786 -80.821187
RightUpLeg -65.042808 19.977319 -16.768458
RightLeg 3.580337 -0.000000 -0.000000
RightFoot 24.830163 34.152424 37.023255
RightToeBase 28.133167 -0.000000 -0.000000
LeftUpLeg -36.745018 28.213416 -23.774693
LeftLeg -0.836285 -0.000000 0.000000
LeftFoot -18.955994 15.831457 -10.801702
LeftToeBase 3.372721 -0.000000 -0.000000
Spine -60.387528 -26.635300 43.718134
RightShoulder -30.688542 3.185467 -50.255875
RightArm -16.382363 -8.553676 41.792560
RightForeArm 5.522171 -0.000000 -8.075464
RightHand 12.602862 -0.000000 -0.743376
RightHandThumb1 -24.326973 -0.000000 -32.862282
LeftShoulder 4.207119 -20.265321 41.278605
LeftArm 57.063997 0.666095 -40.033622
LeftForeArm 20.054845 -0.000000 1.867424
LeftHand -22.121563 -0.000000 -7.340776
LeftHandThumb1 -26.253704 0.000000 33.147579
Head -9.204460 -42.904873 20.739060
305
root 2.374707 32.089217 -6.783764 131.401128 -81.158826 -82.586903
RightUpLeg -65.170188 20.022507 -16.834642
RightLeg 3.616086 -0.000000 -0.000000
RightFoot 25.002698 34.187653 37.177494
RightToeBase 28.249508 -0.000000 -0.000000
LeftUpLeg -36.798830 28.135838 -23.833704
LeftLeg -0.784461 -0.000000 0.000000
LeftFoot -19.030381 15.960789 -10.833635
LeftToeBase 3.391332 -0.000000 -0.000000
Spine -60.401073 -26.655689 43.764639
RightShoulder -30.711664 3.213349 -50.211058
RightArm -16.367725 -8.511896 41.844731
RightForeArm 5.398045 -0.000000 -8.144130
RightHand 12.626469 -0.000000 -0.560598
RightHandThumb1 -24.326973 -0.000000 -32.862282
LeftShoulder 4.190131 -20.306998 41.328624
LeftArm 57.136714 0.688742 -40.045174
LeftForeArm 20.142760 -0.000000 1.829556
LeftHand -22.104398 -0.000000 -7.304294
LeftHandThumb1 -26.253704 0.000000 33.147579
Head -9.254961 -42.818138 20.882493
306
root 2.382739 32.085396 -6.787176 132.950138 -81.188316 -84.090265
RightUpLeg -65.269548 20.042081 -16.854918
RightLeg 3.635540 -0.000000 -0.000000
RightFoot 25.237761 34.235212 37.390378
RightToeBase 28.384469 -0.000000 -0.000000
LeftUpLeg -36.852929 28.068860 -23.876751
LeftLeg -0.721294 -0.000000 0.000000
LeftFoot -19.112860 16.053609 -10.881889
LeftToeBase 3.368483 -0.000000 -0.000000
Spine -60.420550 -26.659964 43.816126
RightShoulder -30.748374 3.232476 -50.177164
RightArm -16.365895 -8.549464 41.884062
RightForeArm 5.339072 -0.000000 -8.260050
RightHand 12.570075 0.000000 -0.452934
RightHandThumb1 -24.326973 -0.000000 -32.862282
LeftShoulder 4.242844 -20.384600 41.359567
LeftArm 57.133634 0.734949 -40.017769
LeftForeArm 20.099044 0.000000 1.848644
LeftHand -22.080346 -0.000000 -7.374155
LeftHandThumb1 -26.253704 0.000000 33.147579
Head -9.257570 -42.776359 20.953408
307
root 2.392248 32.081834 -6.792462 134.346154 -81.218979 -85.440656
RightUpLeg -65.401430 20.081272 -16.944279
RightLeg 3.677357 -0.000000 -0.000000
RightFoot 25.432028 34.225746 37.631340
RightToeBase 28.595506 -0.000000 -0.000000
LeftUpLeg -36.907430 27.994227 -23.912098
LeftLeg -0.656489 -0.000000 0.000000
LeftFoot -19.200489 16.114395 -10.948922
LeftToeBase 3.355555 -0.000000 -0.000000
Spine -60.443257 -26.680508 43.859928
RightShoulder -30.781775 3.169347 -50.117799
RightArm -16.348350 -8.571638 41.943253
RightForeArm 5.194448 -0.000000 -8.330709
RightHand 12.482641 -0.000000 -0.328565
RightHandThumb1 -24.326973 -0.000000 -32.862282
LeftShoulder 4.294348 -20.456131 41.385700
LeftArm 57.149277 0.721369 -40.027638
LeftForeArm 20.039221 -0.000000 1.856297
LeftHand -22.157744 -0.000000 -7.324538
LeftHandThumb1 -26.253704 0.000000 33.147579
Head -9.285687 -42.721951 21.071247
308
root 2.400110 32.078094 -6.797312 135.599881 -81.251787 -86.663742
RightUpLeg -65.516692 20.106432 -17.019962
RightLeg 3.734791 -0.000000 -0.000000
RightFoot 25.616461 34.219523 37.898359
RightToeBase 28.801292 -0.000000 -0.000000
LeftUpLeg -36.938948 27.917743 -23.936613
LeftLeg -0.599612 -0.000000 0.000000
LeftFoot -19.268558 16.189266 -11.002150
LeftToeBase 3.355988 -0.000000 -0.000000
Spine -60.477420 -26.717496 43.917209
RightShoulder -30.785725 3.143677 -50.066456
RightArm -16.374863 -8.708143 41.995169
RightForeArm 5.217318 0.000000 -8.428830
RightHand 12.452533 -0.000000 -0.129716
RightHandThumb1 -24.326973 -0.000000 -32.862282
LeftShoulder 4.327699 -20.541486 41.394184
LeftArm 57.184649 0.766514 -39.999621
LeftForeArm 20.008059 0.000000 1.880836
LeftHand -22.061301 -0.000000 -7.485678
LeftHandThumb1 -26.253704 0.000000 33.147579
Head -9.270597 -42.662559 21.152491
309
root 2.406620 32.074267 -6.803083 136.919414 -81.281844 -87.954370
RightUpLeg -65.642500 20.143815 -17.119508
RightLeg 3.794866 -0.000000 -0.000000
RightFoot 25.809605 34.223665 38.155717
RightToeBase 28.996157 -0.000000 -0.000000
LeftUpLeg -36.954855 27.841660 -23.965707
LeftLeg -0.574013 -0.000000 0.000000
LeftFoot -19.336185 16.280714 -11.066922
LeftToeBase 3.379459 -0.000000 -0.000000
Spine -60.504986 -26.745917 43.951842
RightShoulder -30.782967 3.152119 -50.035686
RightArm -16.461680 -8.811182 42.001824
RightForeArm 5.180354 0.000000 -8.467235
RightHand 12.220108 -0.000000 0.054204
RightHandThumb1 -24.326973 -0.000000 -32.862282
LeftShoulder 4.363367 -20.596888 41.435069
LeftArm 57.221279 0.749845 -40.049738
LeftForeArm 20.086236 0.000000 1.885550
LeftHand -21.998477 -0.000000 -7.564524
LeftHandThumb1 -26.253704 0.000000 33.147579
Head -9.260423 -42.589998 21.237580
310
root 2.412051 32.070207 -6.809249 138.266935 -81.307916 -89.284008
RightUpLeg -65.774178 20.198107 -17.251057
RightLeg 3.862559 -0.000000 -0.000000
RightFoot 26.040183 34.159188 38.543698
RightToeBase 29.286448 -0.000000 -0.000000
LeftUpLeg -36.942885 27.773225 -23.989946
LeftLeg -0.577774 -0.000000 0.000000
LeftFoot -19.373306 16.370181 -11.134511
LeftToeBase 3.370804 -0.000000 -0.000000
Spine -60.533330 -26.784867 43.983998
RightShoulder -30.768004 3.153726 -50.014264
RightArm -16.589022 -8.989340 42.047040
RightForeArm 5.236068 -0.000000 -8.440971
RightHand 12.168856 0.000000 0.103290
RightHandThumb1 -24.326973 -0.000000 -32.862282
LeftShoulder 4.384323 -20.671654 41.477782
LeftArm 57.271319 0.808870 -40.028486
LeftForeArm 20.003648 0.000000 1.854043
LeftHand -21.941984 0.000000 -7.678333
LeftHandThumb1 -26.253704 0.000000 33.147579
Head -9.223895 -42.497100 21.319518
